<?xml version="1.0" encoding="UTF-8"?>
<svg id="Horizontal_-_inverse"
  xmlns="http://www.w3.org/2000/svg" viewBox="0 0 676.95 175.45">
  <defs>
    <style>
      .cls-1 {
        fill: #ef6455;
      }

      .cls-1, .cls-2, .cls-3 {
        fill-rule: evenodd;
        stroke: #fff;
        stroke-miterlimit: 10;
        stroke-width: 2px;
      }

      .cls-4 {
        fill: #231f20;
      }

      .cls-2 {
        fill: #c34891;
      }

      .cls-5 {
        fill: #ddd;
      }

      .cls-3 {
        fill: #0b87bf;
      }
    </style>
  </defs>
  <g>
    <path class="cls-1" d="M112.28,32.03c0,16.17-13.11,29.29-29.28,29.29-16.17,0-29.28-13.11-29.28-29.28,0-16.17,13.11-29.28,29.28-29.28,16.17,0,29.28,13.11,29.28,29.28h0Z"/>
    <path class="cls-3" d="M217.7,32.03c0,16.17-13.11,29.29-29.29,29.29-16.17,0-29.28-13.11-29.28-29.28,0-16.17,13.11-29.28,29.28-29.28,16.18,0,29.29,13.11,29.29,29.28h0Z"/>
    <path class="cls-3" d="M346.55,114.03c-11.74,0-23.43,12.54-23.43,23.43,0,16.17-13.11,29.28-29.28,29.28-16.17,0-29.28-13.11-29.28-29.28,0-10.88-11.68-23.43-23.43-23.43-16.17,0-29.28-13.11-29.28-29.28,0-16.17,13.11-29.28,29.28-29.28,16.18,0,29.28,13.11,29.28,29.28,0,10.89,11.68,23.43,23.43,23.43,10.89,0,23.43-11.68,23.43-23.43,0-16.17,13.11-29.28,29.28-29.28,16.18,0,29.28,13.11,29.28,29.28,0,16.17-13.11,29.28-29.28,29.28h0Z"/>
    <path class="cls-2" d="M323.13,32.03c0,16.17-13.11,29.29-29.29,29.29-16.17,0-29.28-13.11-29.28-29.28,0-16.17,13.11-29.28,29.28-29.28,16.18,0,29.28,13.11,29.29,29.28h0Z"/>
    <path class="cls-1" d="M241.13,114.03c-11.74,0-23.43,12.54-23.43,23.43,0,16.17-13.11,29.28-29.28,29.28-16.17,0-29.29-13.11-29.29-29.28,0-10.88-11.68-23.43-23.43-23.43-16.17,0-29.28-13.11-29.28-29.28,0-16.17,13.11-29.28,29.28-29.28,16.17,0,29.29,13.11,29.29,29.28,0,10.89,11.68,23.43,23.43,23.43,10.89,0,23.43-11.68,23.43-23.43,0-16.17,13.11-29.28,29.28-29.28,16.18,0,29.28,13.11,29.28,29.28,0,16.17-13.11,29.28-29.28,29.28h0Z"/>
    <path class="cls-2" d="M135.71,114.03c-11.74,0-23.43,12.54-23.43,23.43,0,16.17-13.11,29.28-29.28,29.28-16.17,0-29.28-13.11-29.28-29.28,0-10.88-11.68-23.43-23.43-23.43-16.17,0-29.28-13.11-29.28-29.28,0-16.17,13.11-29.28,29.28-29.28,16.17,0,29.29,13.11,29.29,29.28,0,10.89,11.68,23.43,23.43,23.43,10.89,0,23.42-11.68,23.42-23.43,0-16.17,13.11-29.28,29.28-29.28,16.18,0,29.28,13.11,29.28,29.28,0,16.17-13.11,29.28-29.28,29.28h0Z"/>
  </g>
  <g>
    <g>
      <path class="cls-4" d="M404.56,50.03c-1.47,0-2.61-.48-3.39-1.45-.79-.97-1.18-2.3-1.18-4V14.01c0-1.78.4-3.13,1.21-4.06.8-.93,1.94-1.39,3.42-1.39h12.09c3.9,0,6.91,1.13,9.04,3.39,2.13,2.26,3.2,5.4,3.2,9.42,0,2.63-.47,4.89-1.42,6.79-.95,1.89-2.34,3.35-4.18,4.38-1.84,1.03-4.05,1.54-6.64,1.54l.34-1.04h2.41c1.38,0,2.61.4,3.69,1.19,1.08.79,1.98,2,2.7,3.62l2.41,5.22c.56,1.16.81,2.26.76,3.31s-.39,1.91-1.03,2.61c-.64.7-1.63,1.04-2.97,1.04-1.25,0-2.27-.31-3.07-.93-.8-.62-1.52-1.58-2.14-2.9l-4.47-9.8c-.39-.81-.89-1.38-1.5-1.71-.61-.33-1.3-.49-2.09-.49h-2.7v10.38c0,1.7-.39,3.04-1.16,4-.77.97-1.88,1.45-3.32,1.45ZM409.03,26.65h6c1.74,0,3.06-.41,3.96-1.22.9-.81,1.35-2.05,1.35-3.71s-.45-2.96-1.35-3.77c-.9-.81-2.22-1.22-3.96-1.22h-6v9.92Z"/>
      <path class="cls-4" d="M451.06,50.14c-3.51,0-6.58-.89-9.22-2.67-2.64-1.78-4.7-4.25-6.19-7.42-1.49-3.17-2.24-6.86-2.24-11.08,0-3.21.42-6.1,1.25-8.67.84-2.57,2.04-4.77,3.61-6.61s3.44-3.27,5.6-4.29,4.55-1.54,7.18-1.54c3.51,0,6.59.88,9.24,2.64,2.66,1.76,4.71,4.21,6.17,7.37,1.46,3.15,2.19,6.85,2.19,11.11,0,3.17-.42,6.05-1.25,8.64-.83,2.59-2.03,4.81-3.59,6.67-1.56,1.86-3.42,3.3-5.58,4.32-2.16,1.02-4.56,1.54-7.18,1.54ZM451.06,41.15c1.74,0,3.21-.48,4.42-1.45,1.21-.97,2.15-2.36,2.8-4.18s.98-4,.98-6.55c0-3.79-.72-6.76-2.16-8.9-1.44-2.15-3.46-3.22-6.05-3.22-1.7,0-3.17.47-4.4,1.42-1.23.95-2.18,2.33-2.85,4.15-.67,1.82-1.01,4-1.01,6.55,0,3.83.74,6.82,2.21,8.96,1.47,2.15,3.49,3.22,6.05,3.22Z"/>
      <path class="cls-4" d="M491.47,50.14c-3.83,0-7.13-.88-9.88-2.64-2.75-1.76-4.88-4.21-6.37-7.37-1.49-3.15-2.24-6.87-2.24-11.17,0-3.21.42-6.1,1.25-8.67.84-2.57,2.06-4.77,3.66-6.61s3.55-3.27,5.83-4.29c2.28-1.02,4.86-1.54,7.74-1.54,1.47,0,3.02.21,4.65.64,1.62.43,3.06,1.03,4.3,1.8.95.58,1.6,1.33,1.94,2.23.34.91.46,1.84.34,2.78-.12.95-.4,1.78-.86,2.49-.46.72-1.05,1.21-1.77,1.48-.72.27-1.52.14-2.41-.41-.95-.58-1.92-1-2.9-1.25-.98-.25-2-.38-3.05-.38-2,0-3.68.46-5.04,1.36-1.36.91-2.38,2.22-3.07,3.94s-1.03,3.86-1.03,6.41.34,4.7,1.03,6.44,1.71,3.06,3.07,3.97c1.36.91,3.04,1.36,5.04,1.36.92,0,1.86-.12,2.83-.35.97-.23,1.92-.62,2.88-1.16.95-.5,1.82-.65,2.61-.44.79.21,1.42.68,1.89,1.39.47.72.78,1.53.91,2.44.13.91.02,1.81-.32,2.7-.34.89-.94,1.6-1.79,2.15-1.15.81-2.56,1.46-4.25,1.94-1.69.48-3.35.72-4.99.72Z"/>
      <path class="cls-4" d="M512.22,50.03c-1.48,0-2.61-.48-3.39-1.45-.79-.97-1.18-2.32-1.18-4.06V13.49c0-1.74.39-3.09,1.18-4.06.79-.97,1.92-1.45,3.39-1.45s2.51.48,3.29,1.45c.79.97,1.18,2.32,1.18,4.06v10.9h14.31v-10.9c0-1.74.39-3.09,1.18-4.06.79-.97,1.88-1.45,3.29-1.45s2.6.48,3.37,1.45c.77.97,1.16,2.32,1.16,4.06v31.03c0,1.74-.38,3.09-1.16,4.06s-1.89,1.45-3.37,1.45-2.51-.48-3.29-1.45c-.79-.97-1.18-2.32-1.18-4.06v-11.43h-14.31v11.43c0,1.74-.38,3.09-1.16,4.06-.77.97-1.88,1.45-3.32,1.45Z"/>
      <path class="cls-4" d="M550.9,49.45c-1.54,0-2.71-.47-3.51-1.42-.8-.95-1.2-2.33-1.2-4.15V14.12c0-1.82.4-3.2,1.2-4.15.8-.95,1.97-1.42,3.51-1.42h9.59c6.03,0,10.69,1.78,13.99,5.34,3.29,3.56,4.94,8.58,4.94,15.08,0,3.29-.42,6.19-1.25,8.7-.84,2.51-2.06,4.65-3.66,6.41-1.61,1.76-3.58,3.09-5.92,4-2.34.91-5.04,1.36-8.09,1.36h-9.59ZM555.23,40.8h4.72c1.74,0,3.24-.25,4.5-.75,1.26-.5,2.31-1.24,3.15-2.2.83-.97,1.46-2.18,1.87-3.65s.62-3.21.62-5.22c0-3.98-.84-6.94-2.51-8.87-1.67-1.93-4.21-2.9-7.62-2.9h-4.72v23.61Z"/>
      <path class="cls-4" d="M585.46,50.03c-1.02,0-1.87-.29-2.56-.87-.69-.58-1.11-1.36-1.28-2.35-.16-.99-.02-2.1.44-3.33l12.24-31.09c.59-1.51,1.31-2.62,2.16-3.33.85-.71,1.85-1.07,3-1.07s2.09.36,2.92,1.07c.84.72,1.55,1.83,2.14,3.33l12.29,31.09c.49,1.24.66,2.36.52,3.36-.15,1.01-.55,1.79-1.2,2.35-.66.56-1.49.84-2.51.84-1.25,0-2.23-.37-2.95-1.1-.72-.73-1.36-1.88-1.92-3.42l-2.65-7.31,3.49,3.02h-20.3l3.44-3.02-2.65,7.31c-.56,1.59-1.15,2.74-1.77,3.45-.62.71-1.57,1.07-2.85,1.07ZM599.38,19.69l-5.7,16.07-1.38-2.78h14.31l-1.43,2.78-5.7-16.07h-.1Z"/>
      <path class="cls-4" d="M625.87,49.45c-1.48,0-2.61-.47-3.42-1.42-.8-.95-1.2-2.29-1.2-4.03V13.89c0-1.74.39-3.07,1.18-4,.79-.93,1.92-1.39,3.39-1.39s2.51.46,3.29,1.39c.79.93,1.18,2.26,1.18,4v26.68h12.04c1.25,0,2.2.38,2.85,1.13.66.75.98,1.85.98,3.28s-.33,2.53-.98,3.31c-.66.77-1.61,1.16-2.85,1.16h-16.47Z"/>
      <path class="cls-4" d="M654.63,49.45c-1.54,0-2.71-.47-3.51-1.42-.8-.95-1.2-2.33-1.2-4.15V14.12c0-1.82.4-3.2,1.2-4.15.8-.95,1.97-1.42,3.51-1.42h16.71c1.11,0,1.97.35,2.58,1.04.61.7.91,1.7.91,3.02s-.3,2.39-.91,3.1c-.61.72-1.47,1.07-2.58,1.07h-12.83v7.77h11.7c1.15,0,2.02.35,2.61,1.04.59.7.88,1.72.88,3.07s-.29,2.33-.88,3.04c-.59.72-1.46,1.07-2.61,1.07h-11.7v8.41h12.83c1.11,0,1.97.36,2.58,1.07.61.72.91,1.73.91,3.04s-.3,2.38-.91,3.07c-.61.7-1.47,1.04-2.58,1.04h-16.71Z"/>
      <path class="cls-4" d="M412.91,105.14c-1.34,0-2.72-.12-4.13-.35-1.41-.23-2.76-.56-4.06-.99-1.29-.42-2.45-.93-3.47-1.51-.88-.5-1.51-1.18-1.87-2.03s-.49-1.73-.39-2.64c.1-.91.38-1.72.83-2.44.46-.71,1.07-1.2,1.82-1.45.75-.25,1.61-.12,2.56.38,1.25.7,2.65,1.25,4.23,1.65,1.57.41,3.06.61,4.47.61,2.13,0,3.63-.36,4.5-1.07.87-.72,1.3-1.56,1.3-2.52,0-.89-.3-1.6-.91-2.15-.61-.54-1.68-1-3.22-1.39l-5.75-1.45c-3.18-.81-5.53-2.17-7.05-4.09-1.52-1.91-2.29-4.4-2.29-7.45,0-2.05.36-3.89,1.08-5.51.72-1.62,1.72-3.02,3-4.18s2.82-2.07,4.62-2.73c1.8-.66,3.79-.99,5.95-.99,1.7,0,3.43.23,5.19.7,1.75.46,3.27,1.14,4.55,2.03.75.46,1.3,1.11,1.65,1.94.34.83.47,1.67.39,2.52-.08.85-.34,1.61-.79,2.26s-1.03,1.09-1.77,1.3c-.74.21-1.61.07-2.63-.44-.98-.5-2.07-.89-3.25-1.16s-2.33-.41-3.44-.41c-1.21,0-2.25.17-3.1.52-.85.35-1.5.83-1.94,1.45-.44.62-.66,1.33-.66,2.15s.29,1.5.88,2.06c.59.56,1.64,1.01,3.15,1.36l5.7,1.45c3.18.81,5.56,2.16,7.13,4.03,1.57,1.88,2.36,4.3,2.36,7.28,0,2.01-.34,3.82-1.03,5.42-.69,1.61-1.68,3-2.97,4.18-1.29,1.18-2.83,2.08-4.62,2.7s-3.79.93-6.02.93Z"/>
      <path class="cls-4" d="M449.44,105.14c-3.83,0-7.13-.88-9.88-2.64-2.75-1.76-4.88-4.21-6.37-7.37-1.49-3.15-2.24-6.87-2.24-11.17,0-3.21.42-6.1,1.25-8.67.84-2.57,2.06-4.77,3.66-6.61s3.55-3.27,5.83-4.29c2.28-1.02,4.86-1.54,7.74-1.54,1.47,0,3.02.21,4.65.64,1.62.43,3.06,1.03,4.3,1.8.95.58,1.6,1.33,1.94,2.23.34.91.46,1.84.34,2.78-.12.95-.4,1.78-.86,2.49-.46.72-1.05,1.21-1.77,1.48-.72.27-1.52.14-2.41-.41-.95-.58-1.92-1-2.9-1.25-.98-.25-2-.38-3.05-.38-2,0-3.68.46-5.04,1.36-1.36.91-2.38,2.22-3.07,3.94s-1.03,3.86-1.03,6.41.34,4.7,1.03,6.44,1.71,3.06,3.07,3.97c1.36.91,3.04,1.36,5.04,1.36.92,0,1.86-.12,2.83-.35.97-.23,1.92-.62,2.88-1.16.95-.5,1.82-.65,2.61-.44.79.21,1.42.68,1.89,1.39.47.72.78,1.53.91,2.44.13.91.02,1.81-.32,2.7-.34.89-.94,1.6-1.79,2.15-1.15.81-2.56,1.46-4.25,1.94-1.69.48-3.35.72-4.99.72Z"/>
      <path class="cls-4" d="M470.18,105.03c-1.47,0-2.61-.48-3.39-1.45-.79-.97-1.18-2.32-1.18-4.06v-31.03c0-1.74.39-3.09,1.18-4.06.79-.97,1.92-1.45,3.39-1.45s2.51.48,3.29,1.45c.79.97,1.18,2.32,1.18,4.06v31.03c0,1.74-.39,3.09-1.16,4.06-.77.97-1.88,1.45-3.32,1.45Z"/>
      <path class="cls-4" d="M485.57,104.45c-1.54,0-2.71-.47-3.51-1.42-.8-.95-1.21-2.33-1.21-4.15v-29.75c0-1.82.4-3.2,1.21-4.15.8-.95,1.97-1.42,3.51-1.42h16.71c1.11,0,1.97.35,2.58,1.04.61.7.91,1.7.91,3.02s-.3,2.39-.91,3.1c-.61.72-1.47,1.07-2.58,1.07h-12.83v7.77h11.7c1.15,0,2.02.35,2.61,1.04.59.7.88,1.72.88,3.07s-.29,2.33-.88,3.04c-.59.72-1.46,1.07-2.61,1.07h-11.7v8.41h12.83c1.11,0,1.97.36,2.58,1.07.61.72.91,1.73.91,3.04s-.3,2.38-.91,3.07c-.61.7-1.47,1.04-2.58,1.04h-16.71Z"/>
      <path class="cls-4" d="M515.16,105.03c-1.38,0-2.43-.45-3.15-1.33-.72-.89-1.08-2.15-1.08-3.77v-31.67c0-1.66.36-2.96,1.08-3.89s1.69-1.39,2.9-1.39c1.02,0,1.82.24,2.41.73s1.25,1.27,1.97,2.35l15.58,22.97h-1.38v-21c0-1.58.35-2.82,1.06-3.71.7-.89,1.75-1.33,3.12-1.33s2.42.45,3.15,1.33c.72.89,1.08,2.13,1.08,3.71v32.13c0,1.43-.34,2.6-1.01,3.51-.67.91-1.57,1.36-2.68,1.36s-1.99-.24-2.63-.73c-.64-.48-1.34-1.27-2.09-2.35l-15.53-23.03h1.38v21c0,1.62-.35,2.88-1.06,3.77-.71.89-1.75,1.33-3.12,1.33Z"/>
      <path class="cls-4" d="M565.65,105.14c-3.84,0-7.13-.88-9.88-2.64-2.75-1.76-4.88-4.21-6.37-7.37-1.49-3.15-2.24-6.87-2.24-11.17,0-3.21.42-6.1,1.25-8.67.84-2.57,2.06-4.77,3.66-6.61s3.55-3.27,5.82-4.29c2.28-1.02,4.86-1.54,7.74-1.54,1.47,0,3.02.21,4.64.64,1.62.43,3.06,1.03,4.3,1.8.95.58,1.6,1.33,1.94,2.23.34.91.46,1.84.34,2.78s-.4,1.78-.86,2.49c-.46.72-1.05,1.21-1.77,1.48s-1.52.14-2.41-.41c-.95-.58-1.92-1-2.9-1.25-.98-.25-2-.38-3.05-.38-2,0-3.68.46-5.04,1.36-1.36.91-2.38,2.22-3.07,3.94-.69,1.72-1.03,3.86-1.03,6.41s.34,4.7,1.03,6.44c.69,1.74,1.71,3.06,3.07,3.97,1.36.91,3.04,1.36,5.04,1.36.92,0,1.86-.12,2.83-.35.97-.23,1.92-.62,2.88-1.16.95-.5,1.82-.65,2.61-.44.79.21,1.42.68,1.89,1.39.47.72.78,1.53.91,2.44.13.91.03,1.81-.32,2.7-.34.89-.94,1.6-1.79,2.15-1.15.81-2.57,1.46-4.25,1.94s-3.35.72-4.99.72Z"/>
      <path class="cls-4" d="M586.54,104.45c-1.54,0-2.71-.47-3.51-1.42-.8-.95-1.2-2.33-1.2-4.15v-29.75c0-1.82.4-3.2,1.2-4.15.8-.95,1.97-1.42,3.51-1.42h16.71c1.11,0,1.97.35,2.58,1.04.61.7.91,1.7.91,3.02s-.3,2.39-.91,3.1c-.61.72-1.47,1.07-2.58,1.07h-12.83v7.77h11.7c1.15,0,2.02.35,2.61,1.04.59.7.88,1.72.88,3.07s-.29,2.33-.88,3.04c-.59.72-1.46,1.07-2.61,1.07h-11.7v8.41h12.83c1.11,0,1.97.36,2.58,1.07.61.72.91,1.73.91,3.04s-.3,2.38-.91,3.07c-.61.7-1.47,1.04-2.58,1.04h-16.71Z"/>
      <path class="cls-4" d="M404.56,160.03c-1.47,0-2.61-.48-3.39-1.45-.79-.97-1.18-2.32-1.18-4.06v-31.03c0-1.74.39-3.09,1.18-4.06.79-.97,1.92-1.45,3.39-1.45s2.51.48,3.29,1.45c.79.97,1.18,2.32,1.18,4.06v31.03c0,1.74-.39,3.09-1.16,4.06-.77.97-1.88,1.45-3.32,1.45Z"/>
      <path class="cls-4" d="M419.45,160.03c-1.38,0-2.43-.45-3.15-1.33-.72-.89-1.08-2.15-1.08-3.77v-31.67c0-1.66.36-2.96,1.08-3.89.72-.93,1.69-1.39,2.9-1.39,1.02,0,1.82.24,2.41.72.59.48,1.25,1.27,1.97,2.35l15.58,22.97h-1.38v-21c0-1.58.35-2.82,1.06-3.71.7-.89,1.75-1.33,3.12-1.33s2.42.45,3.15,1.33c.72.89,1.08,2.13,1.08,3.71v32.13c0,1.43-.34,2.6-1.01,3.51s-1.57,1.36-2.68,1.36-1.99-.24-2.63-.72c-.64-.48-1.34-1.27-2.09-2.35l-15.53-23.03h1.38v21c0,1.62-.35,2.88-1.06,3.77-.71.89-1.75,1.33-3.12,1.33Z"/>
      <path class="cls-4" d="M456.96,160.03c-1.48,0-2.61-.48-3.39-1.45-.79-.97-1.18-2.32-1.18-4.06v-31.03c0-1.74.39-3.09,1.18-4.06.79-.97,1.92-1.45,3.39-1.45s2.51.48,3.29,1.45c.79.97,1.18,2.32,1.18,4.06v31.03c0,1.74-.38,3.09-1.16,4.06-.77.97-1.88,1.45-3.32,1.45Z"/>
      <path class="cls-4" d="M480.36,160.03c-1.47,0-2.61-.48-3.39-1.45-.79-.97-1.18-2.3-1.18-4v-27.32h-7.72c-1.21,0-2.14-.39-2.78-1.16-.64-.77-.96-1.86-.96-3.25s.32-2.46.96-3.19c.64-.73,1.56-1.1,2.78-1.1h24.48c1.25,0,2.18.37,2.8,1.1.62.74.93,1.8.93,3.19s-.31,2.52-.93,3.28c-.62.75-1.56,1.13-2.8,1.13h-7.72v27.32c0,1.7-.38,3.04-1.13,4s-1.87,1.45-3.34,1.45Z"/>
      <path class="cls-4" d="M503.76,160.03c-1.48,0-2.61-.48-3.39-1.45-.79-.97-1.18-2.32-1.18-4.06v-31.03c0-1.74.39-3.09,1.18-4.06.79-.97,1.92-1.45,3.39-1.45s2.51.48,3.29,1.45c.79.97,1.18,2.32,1.18,4.06v31.03c0,1.74-.38,3.09-1.16,4.06-.77.97-1.88,1.45-3.32,1.45Z"/>
      <path class="cls-4" d="M516.05,160.03c-1.02,0-1.87-.29-2.56-.87-.69-.58-1.12-1.36-1.28-2.35-.17-.99-.02-2.1.44-3.33l12.24-31.09c.59-1.51,1.31-2.62,2.16-3.33.85-.71,1.85-1.07,3-1.07s2.09.36,2.92,1.07c.84.72,1.55,1.83,2.14,3.33l12.29,31.09c.49,1.24.66,2.36.52,3.36-.15,1.01-.55,1.79-1.2,2.35-.66.56-1.49.84-2.51.84-1.25,0-2.23-.37-2.95-1.1-.72-.73-1.36-1.88-1.92-3.42l-2.65-7.31,3.49,3.02h-20.3l3.44-3.02-2.65,7.31c-.56,1.59-1.15,2.74-1.77,3.45-.62.71-1.57,1.07-2.85,1.07ZM529.96,129.69l-5.7,16.07-1.38-2.78h14.31l-1.43,2.78-5.7-16.07h-.1Z"/>
      <path class="cls-4" d="M560.69,160.03c-1.48,0-2.61-.48-3.39-1.45-.79-.97-1.18-2.3-1.18-4v-27.32h-7.72c-1.21,0-2.14-.39-2.78-1.16-.64-.77-.96-1.86-.96-3.25s.32-2.46.96-3.19c.64-.73,1.57-1.1,2.78-1.1h24.48c1.25,0,2.18.37,2.8,1.1.62.74.93,1.8.93,3.19s-.31,2.52-.93,3.28c-.62.75-1.56,1.13-2.8,1.13h-7.72v27.32c0,1.7-.38,3.04-1.13,4-.75.97-1.87,1.45-3.34,1.45Z"/>
      <path class="cls-4" d="M584.09,160.03c-1.47,0-2.61-.48-3.39-1.45-.79-.97-1.18-2.32-1.18-4.06v-31.03c0-1.74.39-3.09,1.18-4.06.79-.97,1.92-1.45,3.39-1.45s2.51.48,3.29,1.45c.79.97,1.18,2.32,1.18,4.06v31.03c0,1.74-.39,3.09-1.16,4.06-.77.97-1.88,1.45-3.32,1.45Z"/>
      <path class="cls-4" d="M609.85,160.03c-1.18,0-2.16-.32-2.95-.96-.79-.64-1.44-1.63-1.97-2.99l-11.9-30.91c-.56-1.39-.73-2.63-.52-3.71.21-1.08.68-1.93,1.4-2.55.72-.62,1.62-.93,2.7-.93,1.34,0,2.36.36,3.05,1.07.69.72,1.26,1.75,1.72,3.1l10.03,27.38h-2.75l10.03-27.43c.49-1.35,1.08-2.38,1.77-3.07.69-.7,1.67-1.04,2.95-1.04.98,0,1.81.32,2.48.96.67.64,1.1,1.48,1.28,2.52.18,1.04,0,2.28-.52,3.71l-11.9,30.91c-.52,1.35-1.16,2.35-1.92,2.99-.75.64-1.75.96-3,.96Z"/>
      <path class="cls-4" d="M635.85,159.45c-1.54,0-2.71-.47-3.51-1.42-.8-.95-1.2-2.33-1.2-4.15v-29.75c0-1.82.4-3.2,1.2-4.15.8-.95,1.97-1.42,3.51-1.42h16.71c1.11,0,1.97.35,2.58,1.04.61.7.91,1.7.91,3.02s-.3,2.39-.91,3.1c-.61.72-1.47,1.07-2.58,1.07h-12.83v7.77h11.7c1.15,0,2.02.35,2.61,1.04s.88,1.72.88,3.07-.29,2.33-.88,3.04c-.59.72-1.46,1.07-2.61,1.07h-11.7v8.41h12.83c1.11,0,1.97.36,2.58,1.07.61.72.91,1.73.91,3.04s-.3,2.38-.91,3.07c-.61.7-1.47,1.04-2.58,1.04h-16.71Z"/>
    </g>
    <g>
      <path class="cls-5" d="M404.56,50.03c-1.47,0-2.61-.48-3.39-1.45-.79-.97-1.18-2.3-1.18-4V14.01c0-1.78.4-3.13,1.21-4.06.8-.93,1.94-1.39,3.42-1.39h12.09c3.9,0,6.91,1.13,9.04,3.39,2.13,2.26,3.2,5.4,3.2,9.42,0,2.63-.47,4.89-1.42,6.79-.95,1.89-2.34,3.35-4.18,4.38-1.84,1.03-4.05,1.54-6.64,1.54l.34-1.04h2.41c1.38,0,2.61.4,3.69,1.19,1.08.79,1.98,2,2.7,3.62l2.41,5.22c.56,1.16.81,2.26.76,3.31s-.39,1.91-1.03,2.61c-.64.7-1.63,1.04-2.97,1.04-1.25,0-2.27-.31-3.07-.93-.8-.62-1.52-1.58-2.14-2.9l-4.47-9.8c-.39-.81-.89-1.38-1.5-1.71-.61-.33-1.3-.49-2.09-.49h-2.7v10.38c0,1.7-.39,3.04-1.16,4-.77.97-1.88,1.45-3.32,1.45ZM409.03,26.65h6c1.74,0,3.06-.41,3.96-1.22.9-.81,1.35-2.05,1.35-3.71s-.45-2.96-1.35-3.77c-.9-.81-2.22-1.22-3.96-1.22h-6v9.92Z"/>
      <path class="cls-5" d="M451.06,50.14c-3.51,0-6.58-.89-9.22-2.67-2.64-1.78-4.7-4.25-6.19-7.42-1.49-3.17-2.24-6.86-2.24-11.08,0-3.21.42-6.1,1.25-8.67.84-2.57,2.04-4.77,3.61-6.61s3.44-3.27,5.6-4.29,4.55-1.54,7.18-1.54c3.51,0,6.59.88,9.24,2.64,2.66,1.76,4.71,4.21,6.17,7.37,1.46,3.15,2.19,6.85,2.19,11.11,0,3.17-.42,6.05-1.25,8.64-.83,2.59-2.03,4.81-3.59,6.67-1.56,1.86-3.42,3.3-5.58,4.32-2.16,1.02-4.56,1.54-7.18,1.54ZM451.06,41.15c1.74,0,3.21-.48,4.42-1.45,1.21-.97,2.15-2.36,2.8-4.18s.98-4,.98-6.55c0-3.79-.72-6.76-2.16-8.9-1.44-2.15-3.46-3.22-6.05-3.22-1.7,0-3.17.47-4.4,1.42-1.23.95-2.18,2.33-2.85,4.15-.67,1.82-1.01,4-1.01,6.55,0,3.83.74,6.82,2.21,8.96,1.47,2.15,3.49,3.22,6.05,3.22Z"/>
      <path class="cls-5" d="M491.47,50.14c-3.83,0-7.13-.88-9.88-2.64-2.75-1.76-4.88-4.21-6.37-7.37-1.49-3.15-2.24-6.87-2.24-11.17,0-3.21.42-6.1,1.25-8.67.84-2.57,2.06-4.77,3.66-6.61s3.55-3.27,5.83-4.29c2.28-1.02,4.86-1.54,7.74-1.54,1.47,0,3.02.21,4.65.64,1.62.43,3.06,1.03,4.3,1.8.95.58,1.6,1.33,1.94,2.23.34.91.46,1.84.34,2.78-.12.95-.4,1.78-.86,2.49-.46.72-1.05,1.21-1.77,1.48-.72.27-1.52.14-2.41-.41-.95-.58-1.92-1-2.9-1.25-.98-.25-2-.38-3.05-.38-2,0-3.68.46-5.04,1.36-1.36.91-2.38,2.22-3.07,3.94s-1.03,3.86-1.03,6.41.34,4.7,1.03,6.44,1.71,3.06,3.07,3.97c1.36.91,3.04,1.36,5.04,1.36.92,0,1.86-.12,2.83-.35.97-.23,1.92-.62,2.88-1.16.95-.5,1.82-.65,2.61-.44.79.21,1.42.68,1.89,1.39.47.72.78,1.53.91,2.44.13.91.02,1.81-.32,2.7-.34.89-.94,1.6-1.79,2.15-1.15.81-2.56,1.46-4.25,1.94-1.69.48-3.35.72-4.99.72Z"/>
      <path class="cls-5" d="M512.22,50.03c-1.48,0-2.61-.48-3.39-1.45-.79-.97-1.18-2.32-1.18-4.06V13.49c0-1.74.39-3.09,1.18-4.06.79-.97,1.92-1.45,3.39-1.45s2.51.48,3.29,1.45c.79.97,1.18,2.32,1.18,4.06v10.9h14.31v-10.9c0-1.74.39-3.09,1.18-4.06.79-.97,1.88-1.45,3.29-1.45s2.6.48,3.37,1.45c.77.97,1.16,2.32,1.16,4.06v31.03c0,1.74-.38,3.09-1.16,4.06s-1.89,1.45-3.37,1.45-2.51-.48-3.29-1.45c-.79-.97-1.18-2.32-1.18-4.06v-11.43h-14.31v11.43c0,1.74-.38,3.09-1.16,4.06-.77.97-1.88,1.45-3.32,1.45Z"/>
      <path class="cls-5" d="M550.9,49.45c-1.54,0-2.71-.47-3.51-1.42-.8-.95-1.2-2.33-1.2-4.15V14.12c0-1.82.4-3.2,1.2-4.15.8-.95,1.97-1.42,3.51-1.42h9.59c6.03,0,10.69,1.78,13.99,5.34,3.29,3.56,4.94,8.58,4.94,15.08,0,3.29-.42,6.19-1.25,8.7-.84,2.51-2.06,4.65-3.66,6.41-1.61,1.76-3.58,3.09-5.92,4-2.34.91-5.04,1.36-8.09,1.36h-9.59ZM555.23,40.8h4.72c1.74,0,3.24-.25,4.5-.75,1.26-.5,2.31-1.24,3.15-2.2.83-.97,1.46-2.18,1.87-3.65s.62-3.21.62-5.22c0-3.98-.84-6.94-2.51-8.87-1.67-1.93-4.21-2.9-7.62-2.9h-4.72v23.61Z"/>
      <path class="cls-5" d="M585.46,50.03c-1.02,0-1.87-.29-2.56-.87-.69-.58-1.11-1.36-1.28-2.35-.16-.99-.02-2.1.44-3.33l12.24-31.09c.59-1.51,1.31-2.62,2.16-3.33.85-.71,1.85-1.07,3-1.07s2.09.36,2.92,1.07c.84.72,1.55,1.83,2.14,3.33l12.29,31.09c.49,1.24.66,2.36.52,3.36-.15,1.01-.55,1.79-1.2,2.35-.66.56-1.49.84-2.51.84-1.25,0-2.23-.37-2.95-1.1-.72-.73-1.36-1.88-1.92-3.42l-2.65-7.31,3.49,3.02h-20.3l3.44-3.02-2.65,7.31c-.56,1.59-1.15,2.74-1.77,3.45-.62.71-1.57,1.07-2.85,1.07ZM599.38,19.69l-5.7,16.07-1.38-2.78h14.31l-1.43,2.78-5.7-16.07h-.1Z"/>
      <path class="cls-5" d="M625.87,49.45c-1.48,0-2.61-.47-3.42-1.42-.8-.95-1.2-2.29-1.2-4.03V13.89c0-1.74.39-3.07,1.18-4,.79-.93,1.92-1.39,3.39-1.39s2.51.46,3.29,1.39c.79.93,1.18,2.26,1.18,4v26.68h12.04c1.25,0,2.2.38,2.85,1.13.66.75.98,1.85.98,3.28s-.33,2.53-.98,3.31c-.66.77-1.61,1.16-2.85,1.16h-16.47Z"/>
      <path class="cls-5" d="M654.63,49.45c-1.54,0-2.71-.47-3.51-1.42-.8-.95-1.2-2.33-1.2-4.15V14.12c0-1.82.4-3.2,1.2-4.15.8-.95,1.97-1.42,3.51-1.42h16.71c1.11,0,1.97.35,2.58,1.04.61.7.91,1.7.91,3.02s-.3,2.39-.91,3.1c-.61.72-1.47,1.07-2.58,1.07h-12.83v7.77h11.7c1.15,0,2.02.35,2.61,1.04.59.7.88,1.72.88,3.07s-.29,2.33-.88,3.04c-.59.72-1.46,1.07-2.61,1.07h-11.7v8.41h12.83c1.11,0,1.97.36,2.58,1.07.61.72.91,1.73.91,3.04s-.3,2.38-.91,3.07c-.61.7-1.47,1.04-2.58,1.04h-16.71Z"/>
      <path class="cls-5" d="M412.91,105.14c-1.34,0-2.72-.12-4.13-.35-1.41-.23-2.76-.56-4.06-.99-1.29-.42-2.45-.93-3.47-1.51-.88-.5-1.51-1.18-1.87-2.03s-.49-1.73-.39-2.64c.1-.91.38-1.72.83-2.44.46-.71,1.07-1.2,1.82-1.45.75-.25,1.61-.12,2.56.38,1.25.7,2.65,1.25,4.23,1.65,1.57.41,3.06.61,4.47.61,2.13,0,3.63-.36,4.5-1.07.87-.72,1.3-1.56,1.3-2.52,0-.89-.3-1.6-.91-2.15-.61-.54-1.68-1-3.22-1.39l-5.75-1.45c-3.18-.81-5.53-2.17-7.05-4.09-1.52-1.91-2.29-4.4-2.29-7.45,0-2.05.36-3.89,1.08-5.51.72-1.62,1.72-3.02,3-4.18s2.82-2.07,4.62-2.73c1.8-.66,3.79-.99,5.95-.99,1.7,0,3.43.23,5.19.7,1.75.46,3.27,1.14,4.55,2.03.75.46,1.3,1.11,1.65,1.94.34.83.47,1.67.39,2.52-.08.85-.34,1.61-.79,2.26s-1.03,1.09-1.77,1.3c-.74.21-1.61.07-2.63-.44-.98-.5-2.07-.89-3.25-1.16s-2.33-.41-3.44-.41c-1.21,0-2.25.17-3.1.52-.85.35-1.5.83-1.94,1.45-.44.62-.66,1.33-.66,2.15s.29,1.5.88,2.06c.59.56,1.64,1.01,3.15,1.36l5.7,1.45c3.18.81,5.56,2.16,7.13,4.03,1.57,1.88,2.36,4.3,2.36,7.28,0,2.01-.34,3.82-1.03,5.42-.69,1.61-1.68,3-2.97,4.18-1.29,1.18-2.83,2.08-4.62,2.7s-3.79.93-6.02.93Z"/>
      <path class="cls-5" d="M449.44,105.14c-3.83,0-7.13-.88-9.88-2.64-2.75-1.76-4.88-4.21-6.37-7.37-1.49-3.15-2.24-6.87-2.24-11.17,0-3.21.42-6.1,1.25-8.67.84-2.57,2.06-4.77,3.66-6.61s3.55-3.27,5.83-4.29c2.28-1.02,4.86-1.54,7.74-1.54,1.47,0,3.02.21,4.65.64,1.62.43,3.06,1.03,4.3,1.8.95.58,1.6,1.33,1.94,2.23.34.91.46,1.84.34,2.78-.12.95-.4,1.78-.86,2.49-.46.72-1.05,1.21-1.77,1.48-.72.27-1.52.14-2.41-.41-.95-.58-1.92-1-2.9-1.25-.98-.25-2-.38-3.05-.38-2,0-3.68.46-5.04,1.36-1.36.91-2.38,2.22-3.07,3.94s-1.03,3.86-1.03,6.41.34,4.7,1.03,6.44,1.71,3.06,3.07,3.97c1.36.91,3.04,1.36,5.04,1.36.92,0,1.86-.12,2.83-.35.97-.23,1.92-.62,2.88-1.16.95-.5,1.82-.65,2.61-.44.79.21,1.42.68,1.89,1.39.47.72.78,1.53.91,2.44.13.91.02,1.81-.32,2.7-.34.89-.94,1.6-1.79,2.15-1.15.81-2.56,1.46-4.25,1.94-1.69.48-3.35.72-4.99.72Z"/>
      <path class="cls-5" d="M470.18,105.03c-1.47,0-2.61-.48-3.39-1.45-.79-.97-1.18-2.32-1.18-4.06v-31.03c0-1.74.39-3.09,1.18-4.06.79-.97,1.92-1.45,3.39-1.45s2.51.48,3.29,1.45c.79.97,1.18,2.32,1.18,4.06v31.03c0,1.74-.39,3.09-1.16,4.06-.77.97-1.88,1.45-3.32,1.45Z"/>
      <path class="cls-5" d="M485.57,104.45c-1.54,0-2.71-.47-3.51-1.42-.8-.95-1.21-2.33-1.21-4.15v-29.75c0-1.82.4-3.2,1.21-4.15.8-.95,1.97-1.42,3.51-1.42h16.71c1.11,0,1.97.35,2.58,1.04.61.7.91,1.7.91,3.02s-.3,2.39-.91,3.1c-.61.72-1.47,1.07-2.58,1.07h-12.83v7.77h11.7c1.15,0,2.02.35,2.61,1.04.59.7.88,1.72.88,3.07s-.29,2.33-.88,3.04c-.59.72-1.46,1.07-2.61,1.07h-11.7v8.41h12.83c1.11,0,1.97.36,2.58,1.07.61.72.91,1.73.91,3.04s-.3,2.38-.91,3.07c-.61.7-1.47,1.04-2.58,1.04h-16.71Z"/>
      <path class="cls-5" d="M515.16,105.03c-1.38,0-2.43-.45-3.15-1.33-.72-.89-1.08-2.15-1.08-3.77v-31.67c0-1.66.36-2.96,1.08-3.89s1.69-1.39,2.9-1.39c1.02,0,1.82.24,2.41.73s1.25,1.27,1.97,2.35l15.58,22.97h-1.38v-21c0-1.58.35-2.82,1.06-3.71.7-.89,1.75-1.33,3.12-1.33s2.42.45,3.15,1.33c.72.89,1.08,2.13,1.08,3.71v32.13c0,1.43-.34,2.6-1.01,3.51-.67.91-1.57,1.36-2.68,1.36s-1.99-.24-2.63-.73c-.64-.48-1.34-1.27-2.09-2.35l-15.53-23.03h1.38v21c0,1.62-.35,2.88-1.06,3.77-.71.89-1.75,1.33-3.12,1.33Z"/>
      <path class="cls-5" d="M565.65,105.14c-3.84,0-7.13-.88-9.88-2.64-2.75-1.76-4.88-4.21-6.37-7.37-1.49-3.15-2.24-6.87-2.24-11.17,0-3.21.42-6.1,1.25-8.67.84-2.57,2.06-4.77,3.66-6.61s3.55-3.27,5.82-4.29c2.28-1.02,4.86-1.54,7.74-1.54,1.47,0,3.02.21,4.64.64,1.62.43,3.06,1.03,4.3,1.8.95.58,1.6,1.33,1.94,2.23.34.91.46,1.84.34,2.78s-.4,1.78-.86,2.49c-.46.72-1.05,1.21-1.77,1.48s-1.52.14-2.41-.41c-.95-.58-1.92-1-2.9-1.25-.98-.25-2-.38-3.05-.38-2,0-3.68.46-5.04,1.36-1.36.91-2.38,2.22-3.07,3.94-.69,1.72-1.03,3.86-1.03,6.41s.34,4.7,1.03,6.44c.69,1.74,1.71,3.06,3.07,3.97,1.36.91,3.04,1.36,5.04,1.36.92,0,1.86-.12,2.83-.35.97-.23,1.92-.62,2.88-1.16.95-.5,1.82-.65,2.61-.44.79.21,1.42.68,1.89,1.39.47.72.78,1.53.91,2.44.13.91.03,1.81-.32,2.7-.34.89-.94,1.6-1.79,2.15-1.15.81-2.57,1.46-4.25,1.94s-3.35.72-4.99.72Z"/>
      <path class="cls-5" d="M586.54,104.45c-1.54,0-2.71-.47-3.51-1.42-.8-.95-1.2-2.33-1.2-4.15v-29.75c0-1.82.4-3.2,1.2-4.15.8-.95,1.97-1.42,3.51-1.42h16.71c1.11,0,1.97.35,2.58,1.04.61.7.91,1.7.91,3.02s-.3,2.39-.91,3.1c-.61.72-1.47,1.07-2.58,1.07h-12.83v7.77h11.7c1.15,0,2.02.35,2.61,1.04.59.7.88,1.72.88,3.07s-.29,2.33-.88,3.04c-.59.72-1.46,1.07-2.61,1.07h-11.7v8.41h12.83c1.11,0,1.97.36,2.58,1.07.61.72.91,1.73.91,3.04s-.3,2.38-.91,3.07c-.61.7-1.47,1.04-2.58,1.04h-16.71Z"/>
      <path class="cls-5" d="M404.56,160.03c-1.47,0-2.61-.48-3.39-1.45-.79-.97-1.18-2.32-1.18-4.06v-31.03c0-1.74.39-3.09,1.18-4.06.79-.97,1.92-1.45,3.39-1.45s2.51.48,3.29,1.45c.79.97,1.18,2.32,1.18,4.06v31.03c0,1.74-.39,3.09-1.16,4.06-.77.97-1.88,1.45-3.32,1.45Z"/>
      <path class="cls-5" d="M419.45,160.03c-1.38,0-2.43-.45-3.15-1.33-.72-.89-1.08-2.15-1.08-3.77v-31.67c0-1.66.36-2.96,1.08-3.89.72-.93,1.69-1.39,2.9-1.39,1.02,0,1.82.24,2.41.72.59.48,1.25,1.27,1.97,2.35l15.58,22.97h-1.38v-21c0-1.58.35-2.82,1.06-3.71.7-.89,1.75-1.33,3.12-1.33s2.42.45,3.15,1.33c.72.89,1.08,2.13,1.08,3.71v32.13c0,1.43-.34,2.6-1.01,3.51s-1.57,1.36-2.68,1.36-1.99-.24-2.63-.72c-.64-.48-1.34-1.27-2.09-2.35l-15.53-23.03h1.38v21c0,1.62-.35,2.88-1.06,3.77-.71.89-1.75,1.33-3.12,1.33Z"/>
      <path class="cls-5" d="M456.96,160.03c-1.48,0-2.61-.48-3.39-1.45-.79-.97-1.18-2.32-1.18-4.06v-31.03c0-1.74.39-3.09,1.18-4.06.79-.97,1.92-1.45,3.39-1.45s2.51.48,3.29,1.45c.79.97,1.18,2.32,1.18,4.06v31.03c0,1.74-.38,3.09-1.16,4.06-.77.97-1.88,1.45-3.32,1.45Z"/>
      <path class="cls-5" d="M480.36,160.03c-1.47,0-2.61-.48-3.39-1.45-.79-.97-1.18-2.3-1.18-4v-27.32h-7.72c-1.21,0-2.14-.39-2.78-1.16-.64-.77-.96-1.86-.96-3.25s.32-2.46.96-3.19c.64-.73,1.56-1.1,2.78-1.1h24.48c1.25,0,2.18.37,2.8,1.1.62.74.93,1.8.93,3.19s-.31,2.52-.93,3.28c-.62.75-1.56,1.13-2.8,1.13h-7.72v27.32c0,1.7-.38,3.04-1.13,4s-1.87,1.45-3.34,1.45Z"/>
      <path class="cls-5" d="M503.76,160.03c-1.48,0-2.61-.48-3.39-1.45-.79-.97-1.18-2.32-1.18-4.06v-31.03c0-1.74.39-3.09,1.18-4.06.79-.97,1.92-1.45,3.39-1.45s2.51.48,3.29,1.45c.79.97,1.18,2.32,1.18,4.06v31.03c0,1.74-.38,3.09-1.16,4.06-.77.97-1.88,1.45-3.32,1.45Z"/>
      <path class="cls-5" d="M516.05,160.03c-1.02,0-1.87-.29-2.56-.87-.69-.58-1.12-1.36-1.28-2.35-.17-.99-.02-2.1.44-3.33l12.24-31.09c.59-1.51,1.31-2.62,2.16-3.33.85-.71,1.85-1.07,3-1.07s2.09.36,2.92,1.07c.84.72,1.55,1.83,2.14,3.33l12.29,31.09c.49,1.24.66,2.36.52,3.36-.15,1.01-.55,1.79-1.2,2.35-.66.56-1.49.84-2.51.84-1.25,0-2.23-.37-2.95-1.1-.72-.73-1.36-1.88-1.92-3.42l-2.65-7.31,3.49,3.02h-20.3l3.44-3.02-2.65,7.31c-.56,1.59-1.15,2.74-1.77,3.45-.62.71-1.57,1.07-2.85,1.07ZM529.96,129.69l-5.7,16.07-1.38-2.78h14.31l-1.43,2.78-5.7-16.07h-.1Z"/>
      <path class="cls-5" d="M560.69,160.03c-1.48,0-2.61-.48-3.39-1.45-.79-.97-1.18-2.3-1.18-4v-27.32h-7.72c-1.21,0-2.14-.39-2.78-1.16-.64-.77-.96-1.86-.96-3.25s.32-2.46.96-3.19c.64-.73,1.57-1.1,2.78-1.1h24.48c1.25,0,2.18.37,2.8,1.1.62.74.93,1.8.93,3.19s-.31,2.52-.93,3.28c-.62.75-1.56,1.13-2.8,1.13h-7.72v27.32c0,1.7-.38,3.04-1.13,4-.75.97-1.87,1.45-3.34,1.45Z"/>
      <path class="cls-5" d="M584.09,160.03c-1.47,0-2.61-.48-3.39-1.45-.79-.97-1.18-2.32-1.18-4.06v-31.03c0-1.74.39-3.09,1.18-4.06.79-.97,1.92-1.45,3.39-1.45s2.51.48,3.29,1.45c.79.97,1.18,2.32,1.18,4.06v31.03c0,1.74-.39,3.09-1.16,4.06-.77.97-1.88,1.45-3.32,1.45Z"/>
      <path class="cls-5" d="M609.85,160.03c-1.18,0-2.16-.32-2.95-.96-.79-.64-1.44-1.63-1.97-2.99l-11.9-30.91c-.56-1.39-.73-2.63-.52-3.71.21-1.08.68-1.93,1.4-2.55.72-.62,1.62-.93,2.7-.93,1.34,0,2.36.36,3.05,1.07.69.72,1.26,1.75,1.72,3.1l10.03,27.38h-2.75l10.03-27.43c.49-1.35,1.08-2.38,1.77-3.07.69-.7,1.67-1.04,2.95-1.04.98,0,1.81.32,2.48.96.67.64,1.1,1.48,1.28,2.52.18,1.04,0,2.28-.52,3.71l-11.9,30.91c-.52,1.35-1.16,2.35-1.92,2.99-.75.64-1.75.96-3,.96Z"/>
      <path class="cls-5" d="M635.85,159.45c-1.54,0-2.71-.47-3.51-1.42-.8-.95-1.2-2.33-1.2-4.15v-29.75c0-1.82.4-3.2,1.2-4.15.8-.95,1.97-1.42,3.51-1.42h16.71c1.11,0,1.97.35,2.58,1.04.61.7.91,1.7.91,3.02s-.3,2.39-.91,3.1c-.61.72-1.47,1.07-2.58,1.07h-12.83v7.77h11.7c1.15,0,2.02.35,2.61,1.04s.88,1.72.88,3.07-.29,2.33-.88,3.04c-.59.72-1.46,1.07-2.61,1.07h-11.7v8.41h12.83c1.11,0,1.97.36,2.58,1.07.61.72.91,1.73.91,3.04s-.3,2.38-.91,3.07c-.61.7-1.47,1.04-2.58,1.04h-16.71Z"/>
    </g>
  </g>
</svg>